<svg id="Layer_1" data-name="Layer 1" xmlns="http://www.w3.org/2000/svg" viewBox="0 0 122.88 106.5"><defs><style>.cls-1{fill-rule:evenodd;}</style></defs><title>chart</title><path class="cls-1" d="M19.39,64.84v39.84a1.84,1.84,0,0,1-1.83,1.82H1.83A1.83,1.83,0,0,1,0,104.68V64.84ZM0,51.83,41.59,15.44c9.21,9,18.14,19.93,27.25,28.93L102.07,11,91.37.28,122.88,0V31.78L112.61,21.51c-7.37,7.47-24.8,23.92-32.17,31.3-9.33,9.32-13.78,9.49-23.1.17L41.59,35.46,23.13,51.83ZM114.37,38.69v66a1.84,1.84,0,0,1-1.82,1.82H96.81A1.84,1.84,0,0,1,95,104.68V57.29c3-2.91,6.5-6.29,10.07-9.73l7.45-7.17a24.16,24.16,0,0,1,1.87-1.7ZM82.71,68.34v36.34a1.84,1.84,0,0,1-1.83,1.82H65.15a1.84,1.84,0,0,1-1.83-1.82V72.22a22.48,22.48,0,0,0,5.73.63,24,24,0,0,0,13.66-4.51Zm-31.66-3v39.29a1.84,1.84,0,0,1-1.83,1.82H33.48a1.83,1.83,0,0,1-1.82-1.82V62q.48-.36.93-.75l7.86-7,6.34,7,.49.51q1.92,1.93,3.77,3.52Z"/></svg>