<svg width="577.901" height="72.001" viewBox="0 0 577.901 72.001" xmlns="http://www.w3.org/2000/svg"><g id="svgGroup" stroke-linecap="round" fill-rule="evenodd" font-size="9pt" stroke="#000" stroke-width="0.25mm" fill="#000" style="stroke:#000;stroke-width:0.25mm;fill:#000"><path d="M 60.001 72.001 L 12.001 72.001 Q 8.701 72.001 5.951 70.401 Q 3.201 68.801 1.601 66.051 Q 0.001 63.301 0.001 60.001 L 0.001 57.201 L 8.101 57.201 L 8.101 60.001 A 3.747 3.747 0 0 0 9.215 62.714 A 4.641 4.641 0 0 0 9.251 62.751 A 3.848 3.848 0 0 0 10.77 63.709 A 3.889 3.889 0 0 0 12.001 63.901 L 60.001 63.901 A 3.747 3.747 0 0 0 62.715 62.786 A 4.641 4.641 0 0 0 62.751 62.751 A 3.848 3.848 0 0 0 63.709 61.232 A 3.889 3.889 0 0 0 63.901 60.001 L 63.901 43.901 A 3.583 3.583 0 0 0 62.822 41.27 A 4.319 4.319 0 0 0 62.751 41.201 Q 61.601 40.101 60.001 40.101 L 12.001 40.101 Q 8.701 40.101 5.951 38.451 Q 3.201 36.801 1.601 34.101 Q 0.001 31.401 0.001 28.101 L 0.001 12.001 Q 0.001 8.701 1.601 5.951 Q 3.201 3.201 5.951 1.601 Q 8.701 0.001 12.001 0.001 L 60.001 0.001 Q 63.301 0.001 66.051 1.601 Q 68.801 3.201 70.401 5.951 Q 72.001 8.701 72.001 12.001 L 72.001 14.801 L 63.901 14.801 L 63.901 12.001 A 3.747 3.747 0 0 0 62.786 9.287 A 4.641 4.641 0 0 0 62.751 9.251 A 3.848 3.848 0 0 0 61.232 8.292 A 3.889 3.889 0 0 0 60.001 8.101 L 12.001 8.101 A 3.747 3.747 0 0 0 9.287 9.215 A 4.641 4.641 0 0 0 9.251 9.251 A 3.848 3.848 0 0 0 8.292 10.769 A 3.889 3.889 0 0 0 8.101 12.001 L 8.101 28.101 A 3.583 3.583 0 0 0 9.18 30.731 A 4.319 4.319 0 0 0 9.251 30.801 Q 10.401 31.901 12.001 31.901 L 60.001 31.901 Q 63.301 31.901 66.051 33.551 Q 68.801 35.201 70.401 37.901 Q 72.001 40.601 72.001 43.901 L 72.001 60.001 Q 72.001 63.301 70.401 66.051 Q 68.801 68.801 66.051 70.401 Q 63.301 72.001 60.001 72.001 Z M 434.401 72.001 L 426.301 72.001 L 426.301 0.001 L 437.401 0.001 L 490.201 62.801 L 490.201 0.001 L 498.301 0.001 L 498.301 72.001 L 487.201 72.001 L 434.401 9.201 L 434.401 72.001 Z M 91.001 72.001 L 82.801 72.001 L 82.801 0.001 L 91.001 0.001 L 91.001 31.901 L 114.201 31.901 L 141.001 0.001 L 151.401 0.001 L 151.401 0.101 L 121.301 36.001 L 151.501 71.901 L 151.501 72.001 L 141.001 72.001 L 114.201 40.101 L 91.001 40.101 L 91.001 72.001 Z M 546.001 72.001 L 537.901 72.001 L 537.901 8.101 L 505.901 8.101 L 505.901 0.001 L 577.901 0.001 L 577.901 8.101 L 546.001 8.101 L 546.001 72.001 Z M 201.201 72.001 L 193.101 72.001 L 193.101 44.901 L 160.001 0.001 L 169.301 0.001 L 197.201 35.201 L 224.801 0.001 L 234.301 0.001 L 201.201 44.901 L 201.201 72.001 Z M 251.101 72.001 L 243.001 72.001 L 243.001 0.101 L 303.001 0.101 Q 306.301 0.101 309.051 1.751 Q 311.801 3.401 313.401 6.101 Q 315.001 8.801 315.001 12.101 L 315.001 33.201 Q 315.001 36.501 313.401 39.201 Q 311.801 41.901 309.051 43.551 Q 306.301 45.201 303.001 45.201 L 251.101 45.201 L 251.101 72.001 Z M 381.901 72.001 L 333.901 72.001 Q 330.601 72.001 327.851 70.401 Q 325.101 68.801 323.501 66.051 Q 321.901 63.301 321.901 60.001 L 321.901 12.001 Q 321.901 8.701 323.501 5.951 Q 325.101 3.201 327.851 1.601 Q 330.601 0.001 333.901 0.001 L 381.901 0.001 Q 385.201 0.001 387.951 1.601 Q 390.701 3.201 392.301 5.951 Q 393.901 8.701 393.901 12.001 L 393.901 60.001 Q 393.901 63.301 392.301 66.051 Q 390.701 68.801 387.951 70.401 Q 385.201 72.001 381.901 72.001 Z M 333.901 63.901 L 381.901 63.901 A 3.747 3.747 0 0 0 384.615 62.786 A 4.641 4.641 0 0 0 384.651 62.751 A 3.848 3.848 0 0 0 385.609 61.232 A 3.889 3.889 0 0 0 385.801 60.001 L 385.801 12.001 A 3.747 3.747 0 0 0 384.686 9.287 A 4.641 4.641 0 0 0 384.651 9.251 A 3.848 3.848 0 0 0 383.132 8.292 A 3.889 3.889 0 0 0 381.901 8.101 L 333.901 8.101 A 3.747 3.747 0 0 0 331.187 9.215 A 4.641 4.641 0 0 0 331.151 9.251 A 3.848 3.848 0 0 0 330.192 10.769 A 3.889 3.889 0 0 0 330.001 12.001 L 330.001 60.001 A 3.747 3.747 0 0 0 331.115 62.714 A 4.641 4.641 0 0 0 331.151 62.751 A 3.848 3.848 0 0 0 332.67 63.709 A 3.889 3.889 0 0 0 333.901 63.901 Z M 255.001 37.001 L 303.001 37.001 Q 304.601 37.001 305.751 35.901 A 3.581 3.581 0 0 0 306.9 33.3 A 4.389 4.389 0 0 0 306.901 33.201 L 306.901 12.101 A 3.747 3.747 0 0 0 305.786 9.387 A 4.641 4.641 0 0 0 305.751 9.351 A 3.848 3.848 0 0 0 304.232 8.392 A 3.889 3.889 0 0 0 303.001 8.201 L 255.001 8.201 A 3.747 3.747 0 0 0 252.287 9.315 A 4.641 4.641 0 0 0 252.251 9.351 A 3.848 3.848 0 0 0 251.292 10.869 A 3.889 3.889 0 0 0 251.101 12.101 L 251.101 33.201 A 3.583 3.583 0 0 0 252.18 35.831 A 4.319 4.319 0 0 0 252.251 35.901 Q 253.401 37.001 255.001 37.001 Z M 414.101 72.001 L 405.901 72.001 L 405.901 0.001 L 414.101 0.001 L 414.101 72.001 Z" vector-effect="non-scaling-stroke"/></g></svg>