<?xml version="1.0" standalone="no"?>
<!DOCTYPE svg PUBLIC "-//W3C//DTD SVG 20010904//EN"
 "http://www.w3.org/TR/2001/REC-SVG-20010904/DTD/svg10.dtd">
<svg version="1.0" xmlns="http://www.w3.org/2000/svg"
 width="512.000000pt" height="512.000000pt" viewBox="0 0 512.000000 512.000000"
 preserveAspectRatio="xMidYMid meet">
<metadata>
Created by potrace 1.14, written by Peter Selinger 2001-2017
</metadata>
<g transform="translate(0.000000,512.000000) scale(0.100000,-0.100000)"
fill="#000000" stroke="none">
<path d="M340 5110 c0 -5 -6 -10 -14 -10 -8 0 -17 -7 -20 -16 -3 -8 -10 -13
-15 -10 -5 3 -12 -1 -15 -10 -3 -8 -10 -13 -15 -10 -5 3 -11 -4 -14 -16 -4
-12 -9 -19 -13 -16 -8 8 -80 -61 -77 -73 2 -5 -1 -8 -6 -6 -5 1 -19 -9 -31
-23 -12 -14 -34 -38 -49 -55 -14 -16 -37 -46 -49 -66 l-22 -36 0 -1206 c0
-1058 2 -1207 15 -1221 8 -8 15 -19 15 -25 0 -6 5 -11 10 -11 6 0 10 -5 10
-10 0 -6 20 -31 45 -58 25 -26 45 -50 45 -54 0 -5 4 -8 9 -8 4 0 36 -26 69
-59 34 -32 63 -56 66 -53 4 3 6 0 6 -6 0 -6 23 -23 50 -38 28 -15 50 -31 50
-36 0 -4 9 -8 20 -8 11 0 20 -4 20 -8 0 -9 121 -68 132 -64 5 1 8 -3 8 -10 0
-6 3 -8 6 -5 4 3 16 1 28 -5 11 -7 23 -13 26 -13 30 -7 67 -19 75 -24 6 -3 15
-6 20 -7 41 -8 74 -15 95 -20 14 -3 44 -6 68 -7 23 0 42 -3 42 -6 0 -11 54 -7
62 4 5 6 8 6 8 -1 0 -8 388 -11 1383 -12 760 0 1387 -1 1393 -1 13 -1 27 -41
15 -41 -4 0 -5 -22 -1 -50 4 -27 3 -50 -2 -50 -5 0 -4 -9 2 -20 6 -11 7 -20 2
-20 -5 0 -6 -22 -2 -50 4 -27 4 -50 0 -50 -4 0 -4 -22 0 -50 4 -27 3 -50 -2
-50 -5 0 -4 -9 2 -20 6 -11 7 -20 2 -20 -5 0 -7 -11 -5 -23 l5 -24 -1239 1
-1238 1 -1 115 c0 67 4 121 10 129 8 11 8 13 0 8 -8 -4 -11 8 -10 38 0 25 5
45 11 45 5 0 4 4 -3 9 -8 4 -14 12 -14 16 0 4 6 12 14 16 11 7 11 9 -1 9 -8 0
-11 6 -7 16 3 8 2 12 -3 9 -5 -3 -12 -1 -16 5 -4 7 -12 7 -25 0 -13 -7 -20 -6
-23 3 -3 9 -7 9 -20 -2 -11 -9 -17 -10 -17 -2 0 13 -22 10 -32 -4 -5 -6 -8 -6
-8 1 0 11 -52 10 -71 -1 -5 -4 -9 -2 -9 3 0 6 -11 9 -24 8 -13 0 -22 -4 -19
-8 2 -5 0 -8 -6 -8 -5 0 -11 5 -13 11 -3 9 -10 9 -27 -1 -13 -6 -21 -8 -18 -3
6 10 -165 9 -182 -1 -6 -4 -11 -3 -11 1 0 10 -72 9 -88 -1 -6 -3 -12 0 -15 6
-3 10 -7 10 -20 -1 -10 -8 -17 -9 -17 -3 0 11 -50 9 -69 -2 -5 -4 -11 -1 -13
5 -3 9 -9 9 -25 0 -14 -7 -24 -8 -28 -1 -3 5 -11 10 -16 10 -6 0 -7 -4 -4 -10
4 -6 -2 -7 -17 -2 -29 9 -140 8 -156 -2 -7 -4 -12 -2 -12 4 0 8 -7 9 -18 5
-19 -8 -23 -8 -65 -2 -15 2 -30 0 -33 -5 -3 -5 -12 -4 -20 3 -11 9 -14 8 -14
-2 0 -12 -2 -12 -9 0 -6 10 -13 10 -28 2 -11 -5 -23 -8 -26 -5 -10 10 -57 11
-63 2 -3 -5 -12 -4 -20 3 -22 18 -21 -1383 1 -1405 8 -8 15 -19 15 -25 0 -5 8
-15 17 -20 10 -6 15 -11 12 -11 -9 0 56 -74 125 -141 33 -32 63 -56 67 -53 4
2 10 -5 14 -16 3 -11 12 -20 18 -20 7 0 25 -11 41 -25 l29 -25 2207 0 c2087 0
2208 1 2228 18 53 44 63 52 68 52 3 0 21 16 40 35 18 19 36 35 39 35 7 0 45
39 45 45 0 3 10 16 23 29 45 46 77 86 77 96 0 5 4 10 8 10 30 0 32 60 32 1245
l0 1193 -35 46 c-19 26 -35 51 -35 57 0 5 -4 7 -10 4 -5 -3 -10 -1 -10 5 0 13
-141 154 -163 163 -9 3 -17 10 -17 16 0 5 -30 28 -67 52 -38 24 -71 48 -75 54
-5 6 -8 6 -8 0 0 -7 -3 -7 -8 0 -9 13 -93 55 -110 55 -8 0 -10 5 -6 12 5 8 2
9 -9 5 -10 -3 -17 -2 -17 4 0 6 -4 7 -10 4 -5 -3 -10 -1 -10 5 0 6 -4 9 -9 5
-5 -3 -12 -1 -16 5 -4 6 -11 8 -16 4 -5 -3 -26 4 -45 15 -19 12 -32 15 -28 9
5 -8 0 -7 -11 2 -10 8 -20 14 -22 12 -2 -2 -29 2 -61 9 -31 7 -67 12 -79 12
-13 0 -23 4 -23 10 0 5 -5 5 -13 -2 -8 -6 -17 -8 -21 -4 -3 4 -24 8 -46 9 -29
2 -38 -1 -33 -9 5 -9 3 -9 -8 -1 -10 8 -390 11 -1397 10 -760 0 -1383 1 -1383
4 -7 28 -3 148 5 159 7 10 7 13 1 9 -13 -8 -14 210 -1 231 6 10 5 12 -3 7 -15
-10 -11 25 4 36 6 5 5 8 -3 8 -7 0 -11 4 -8 8 3 5 560 8 1238 8 l1232 -1 7
-32 c3 -18 2 -33 -3 -33 -5 0 -4 -9 2 -20 6 -11 7 -20 2 -20 -5 0 -6 -22 -2
-50 4 -27 4 -50 0 -50 -4 0 -4 -22 0 -50 4 -27 3 -50 -2 -50 -5 0 -4 -9 2 -20
6 -11 7 -20 2 -20 -4 0 -6 -15 -4 -34 4 -36 31 -53 51 -33 7 7 11 7 11 1 0
-11 71 -11 88 0 6 3 12 0 15 -6 3 -10 7 -10 20 1 10 8 17 9 17 3 0 -11 50 -9
69 2 5 4 11 1 13 -5 3 -9 9 -9 25 0 14 7 24 8 28 1 3 -5 11 -10 16 -10 6 0 8
4 5 8 -3 5 1 9 9 9 8 0 15 -3 15 -7 0 -8 74 -5 88 4 6 3 12 1 14 -5 3 -9 10
-9 27 1 14 7 21 8 17 1 -7 -10 44 -8 63 3 5 4 11 1 13 -5 3 -9 9 -9 25 0 14 7
24 8 28 1 3 -5 11 -10 16 -10 6 0 8 4 5 8 -3 5 1 9 9 9 8 0 15 -5 15 -10 0 -5
8 -6 18 -2 19 8 23 8 65 2 15 -2 30 0 33 5 3 5 12 4 20 -3 11 -9 14 -8 14 2 0
12 2 12 9 0 6 -10 13 -10 28 -2 11 5 23 8 26 4 10 -9 51 -10 64 -1 6 5 13 5
16 1 6 -10 159 -9 175 1 7 4 12 3 12 -1 0 -10 72 -9 88 1 6 3 12 0 15 -6 3
-10 7 -10 19 0 13 10 17 10 21 0 3 -7 6 303 6 689 1 611 -1 704 -14 717 -8 8
-15 18 -15 23 0 5 -22 32 -49 61 -26 28 -47 53 -46 54 1 2 -20 24 -47 50 -26
25 -48 43 -48 40 0 -4 -10 4 -22 16 -48 48 -91 81 -99 76 -5 -3 -9 0 -9 5 0 8
-663 11 -2215 11 -1470 0 -2215 -3 -2215 -10z"/>
</g>
</svg>
